<?xml version="1.0" standalone="no"?>
<!DOCTYPE svg PUBLIC "-//W3C//DTD SVG 20010904//EN"
 "http://www.w3.org/TR/2001/REC-SVG-20010904/DTD/svg10.dtd">
<svg version="1.0" xmlns="http://www.w3.org/2000/svg"
 width="323.260000pt" height="508.663000pt" viewBox="351.042000 130.316000 323.260000 508.663000"
 preserveAspectRatio="xMidYMid meet">
<g transform="translate(0.000000,768.000000) scale(0.100000,-0.100000)"
fill="#fff" stroke="none">
<path d="M5616 6365 c-69 -27 -98 -59 -242 -266 -226 -326 -317 -457 -925
-1329 -843 -1209 -900 -1291 -920 -1335 -23 -49 -25 -149 -4 -198 21 -50 70
-104 119 -130 39 -21 56 -22 301 -25 276 -3 359 4 429 40 92 46 153 114 317
350 l74 108 273 0 274 0 29 -29 c23 -24 29 -38 29 -73 0 -40 -18 -68 -256
-408 -412 -586 -434 -623 -460 -757 -20 -107 -20 -755 1 -832 35 -134 185
-221 311 -181 76 24 113 60 217 209 100 145 211 305 592 851 412 592 699 1003
868 1245 87 124 100 154 100 230 1 76 -29 141 -86 190 -76 65 -73 65 -755 65
l-614 0 -29 29 c-23 24 -29 38 -29 73 0 41 13 63 188 311 103 147 240 342 305
434 149 213 214 340 226 443 11 100 2 795 -11 839 -14 44 -71 107 -122 133
-52 27 -148 33 -200 13z"/>
</g>
</svg>